Coordinates
version=1
nRows=8
nColumns=42
inDegrees=yes

Units are S.I. units (second, meters, Newtons, ...)
If the header above contains a line with 'inDegrees', this indicates whether rotational values are in degrees (yes) or radians (no).

endheader
time	pelvis_tilt	pelvis_list	pelvis_rotation	pelvis_tx	pelvis_ty	pelvis_tz	hip_flexion_r	hip_adduction_r	hip_rotation_r	knee_angle_r	knee_adduction_r	knee_angle_r_beta	ankle_angle_r	subtalar_angle_r	mtp_angle_r	hip_flexion_l	hip_adduction_l	hip_rotation_l	knee_angle_l	knee_adduction_l	knee_angle_l_beta	ankle_angle_l	subtalar_angle_l	mtp_angle_l	lumbar_extension	lumbar_bending	lumbar_rotation	arm_flex_r	arm_add_r	arm_rot_r	elbow_flex_r	pro_sup_r	wrist_flex_r	wrist_dev_r	arm_flex_l	arm_add_l	arm_rot_l	elbow_flex_l	pro_sup_l	wrist_flex_l	wrist_dev_l
      2.50000000	      0.60515596	     -8.17699269	     -3.64009592	     -1.22224275	      0.83081523	      0.34021708	      6.52237140	      8.30113670	    -24.73616837	     20.30410303	     -2.21972631	      0.35437345	     18.92683109	     27.93733285	     -7.56575581	     18.14072986	    -21.69495545	    -24.11461674	     56.00849876	    -10.75012382	      0.97753271	     18.80212405	     14.03440033	     -7.56575581	    -23.07217633	     10.56550738	      1.76952220	    -10.55295702	     -4.46916176	    -11.67568586	    107.50125915	     90.00000001	      0.00000000	      0.00000000	     -0.61421149	     -8.11221785	    -17.66770672	     52.75572038	     90.00000001	      0.00000000	      0.00000000
      2.51000000	      0.23545162	     -8.03992441	     -3.87984742	     -1.22100623	      0.83017589	      0.33993182	      7.01227261	      8.03046941	    -24.94633625	     20.76454839	     -2.30193393	      0.36240974	     19.17463762	     28.81949098	     -7.56335252	     19.27965844	    -21.76576657	    -26.28109609	     54.70290087	    -11.83608223	      0.95474573	     19.91663226	     16.70522844	     -7.56335252	    -22.91162250	     10.36070250	      1.82379816	    -10.55393672	     -4.46436750	    -11.50350097	    107.50065958	     90.00000001	      0.00000000	      0.00000000	     -0.49155675	     -8.21435357	    -17.53197775	     52.81673222	     90.00000001	      0.00000000	      0.00000000
      2.52000000	      0.06703123	     -8.14353129	     -3.85681335	     -1.21995217	      0.82991829	      0.33949057	      7.06810071	      8.10886610	    -25.07302839	     20.67309863	     -2.27071909	      0.36081364	     19.24370919	     28.75515145	     -7.56279821	     20.26712653	    -21.99474853	    -26.68988640	     53.53211137	    -11.56143279	      0.93431160	     20.17641631	     16.85957340	     -7.56279821	    -23.02406652	     10.44832339	      1.71978641	    -10.44952597	     -4.33502690	    -11.38789783	    107.64000455	     90.00000001	      0.00000000	      0.00000000	     -0.32532390	     -8.27595097	    -17.49491964	     52.88426107	     90.00000001	      0.00000000	      0.00000000
      2.53000000	     -0.22471975	     -8.12966040	     -3.98117983	     -1.21861800	      0.82937718	      0.33897411	      7.34088188	      8.01911809	    -25.22921864	     20.81532138	     -2.32341918	      0.36329589	     19.39542261	     29.17754758	     -7.56037573	     21.30253501	    -22.08501827	    -28.33742798	     52.06583747	    -12.29642460	      0.90872029	     20.98203941	     20.24267505	     -7.56037573	    -22.92397392	     10.38951725	      1.68019016	    -10.43337845	     -4.27334234	    -11.20359613	    107.70574810	     90.00000001	      0.00000000	      0.00000000	     -0.21029385	     -8.31920043	    -17.41955096	     52.80815341	     90.00000001	      0.00000000	      0.00000000
      2.54000000	     -0.41882284	     -8.27836915	     -3.99527310	     -1.21742078	      0.82901949	      0.33841615	      7.42802771	      8.11322911	    -25.26546460	     20.80525343	     -2.22040200	      0.36312017	     19.43735146	     29.04355298	     -7.55988374	     22.22166780	    -22.29605205	    -28.53532424	     50.83686708	    -11.82638294	      0.88727071	     21.08721647	     20.33340760	     -7.55988374	    -22.97986075	     10.49908762	      1.61466189	    -10.37603456	     -4.21501042	    -11.12450453	    107.82904574	     90.00000001	      0.00000000	      0.00000000	     -0.09520010	     -8.40882308	    -17.39529840	     52.88848693	     90.00000001	      0.00000000	      0.00000000
      2.55000000	     -0.76621861	     -8.27620332	     -4.08279262	     -1.21605344	      0.82839856	      0.33765641	      7.77406132	      8.09066085	    -25.23386672	     20.93094775	     -2.34545398	      0.36531395	     19.62568433	     29.20084565	     -7.55740610	     23.24104259	    -22.25861711	    -29.82447873	     49.24052727	    -12.34592944	      0.85940933	     21.52176182	     24.14145528	     -7.55740610	    -22.80123952	     10.46460766	      1.54231825	    -10.47442526	     -4.22862241	    -11.00404805	    107.88796302	     90.00000001	      0.00000000	      0.00000000	      0.04188590	     -8.46064363	    -17.33391656	     52.76836803	     90.00000001	      0.00000000	      0.00000000
      2.56000000	     -1.00266109	     -8.41051414	     -4.10471564	     -1.21472066	      0.82798524	      0.33682880	      7.91252105	      8.20057581	    -25.13362964	     20.89959225	     -2.33248763	      0.36476670	     19.68018395	     29.10400335	     -7.55678787	     24.09901320	    -22.30225936	    -29.86174751	     47.92029578	    -11.86974767	      0.83636694	     21.52902309	     24.51819288	     -7.55678787	    -22.76195783	     10.57089123	      1.46860560	    -10.51961078	     -4.22012108	    -10.93343403	    107.97088820	     90.00000001	      0.00000000	      0.00000000	      0.13531632	     -8.50778819	    -17.29625697	     52.79899624	     90.00000001	      0.00000000	      0.00000000
      2.57000000	     -1.34484195	     -8.46600819	     -4.19052888	     -1.21318863	      0.82734532	      0.33594344	      8.20113676	      8.18999046	    -25.08884748	     20.99746107	     -2.31344114	      0.36647483	     19.86601764	     29.09787895	     -7.55494317	     25.03600913	    -22.30024680	    -30.69598053	     46.53765067	    -11.99711328	      0.81223523	     21.49429140	     27.68393066	     -7.55494317	    -22.54215267	     10.59073537	      1.36981876	    -10.58957808	     -4.21115242	    -10.87792890	    107.97553954	     90.00000001	      0.00000000	      0.00000000	      0.22943863	     -8.55555388	    -17.25499778	     52.57298620	     90.00000001	      0.00000000	      0.00000000
